<svg id="visual" viewBox="0 0 960 540" width="960" height="540" xmlns="http://www.w3.org/2000/svg" xmlns:xlink="http://www.w3.org/1999/xlink" version="1.1"><rect x="0" y="0" width="960" height="540" fill="#fff"></rect><defs><linearGradient id="grad1_0" x1="43.8%" y1="100%" x2="100%" y2="0%"><stop offset="14.444444444444446%" stop-color="#ffffff" stop-opacity="1"></stop><stop offset="85.55555555555554%" stop-color="#ffffff" stop-opacity="1"></stop></linearGradient></defs><defs><linearGradient id="grad2_0" x1="0%" y1="100%" x2="56.3%" y2="0%"><stop offset="14.444444444444446%" stop-color="#ffffff" stop-opacity="1"></stop><stop offset="85.55555555555554%" stop-color="#ffffff" stop-opacity="1"></stop></linearGradient></defs><g transform="translate(960, 540)"><path d="M-378 0C-334 -26.3 -289.9 -52.6 -285.3 -92.7C-280.7 -132.8 -315.5 -186.8 -305.8 -222.2C-296.2 -257.6 -242.1 -274.4 -196.9 -271C-151.7 -267.7 -115.4 -244.2 -84.1 -258.7C-52.7 -273.2 -26.4 -325.6 0 -378L0 0Z" fill="#ffc107"></path></g><g transform="translate(0, 0)"><path d="M378 0C349 32 320 64 311.9 101.4C303.8 138.8 316.6 181.6 305.8 222.2C295 262.8 260.6 301.2 217.5 299.3C174.4 297.4 122.7 255.2 85 261.5C47.3 267.9 23.6 323 0 378L0 0Z" fill="#ffc107"></path></g></svg>