<svg id="visual" viewBox="0 0 960 540" width="960" height="540" xmlns="http://www.w3.org/2000/svg" xmlns:xlink="http://www.w3.org/1999/xlink" version="1.1"><path d="M0 381L13.3 388.3C26.7 395.7 53.3 410.3 80 418.2C106.7 426 133.3 427 160 423.3C186.7 419.7 213.3 411.3 240 416.2C266.7 421 293.3 439 320 441.5C346.7 444 373.3 431 400 419C426.7 407 453.3 396 480 402.2C506.7 408.3 533.3 431.7 560 430.8C586.7 430 613.3 405 640 389C666.7 373 693.3 366 720 369C746.7 372 773.3 385 800 386.3C826.7 387.7 853.3 377.3 880 382.5C906.7 387.7 933.3 408.3 946.7 418.7L960 429L960 541L946.7 541C933.3 541 906.7 541 880 541C853.3 541 826.7 541 800 541C773.3 541 746.7 541 720 541C693.3 541 666.7 541 640 541C613.3 541 586.7 541 560 541C533.3 541 506.7 541 480 541C453.3 541 426.7 541 400 541C373.3 541 346.7 541 320 541C293.3 541 266.7 541 240 541C213.3 541 186.7 541 160 541C133.3 541 106.7 541 80 541C53.3 541 26.7 541 13.3 541L0 541Z" fill="#ffc107" stroke-linecap="round" stroke-linejoin="miter"></path></svg>