<svg id="visual" viewBox="0 0 960 540" width="960" height="540" xmlns="http://www.w3.org/2000/svg" xmlns:xlink="http://www.w3.org/1999/xlink" version="1.1"><rect x="0" y="0" width="960" height="540" fill="#fff"></rect><defs><linearGradient id="grad1_0" x1="43.8%" y1="0%" x2="100%" y2="100%"><stop offset="14.444444444444446%" stop-color="#ffffff" stop-opacity="1"></stop><stop offset="85.55555555555554%" stop-color="#ffffff" stop-opacity="1"></stop></linearGradient></defs><defs><linearGradient id="grad2_0" x1="0%" y1="0%" x2="56.3%" y2="100%"><stop offset="14.444444444444446%" stop-color="#ffffff" stop-opacity="1"></stop><stop offset="85.55555555555554%" stop-color="#ffffff" stop-opacity="1"></stop></linearGradient></defs><g transform="translate(960, 0)"><path d="M0 378C-26.3 334 -52.6 289.9 -92.7 285.3C-132.8 280.7 -186.8 315.5 -222.2 305.8C-257.6 296.2 -274.4 242.1 -271 196.9C-267.7 151.7 -244.2 115.4 -258.7 84.1C-273.2 52.7 -325.6 26.4 -378 0L0 0Z" fill="#ffc107"></path></g><g transform="translate(0, 540)"><path d="M0 -378C32 -349 64 -320 101.4 -311.9C138.8 -303.8 181.6 -316.6 222.2 -305.8C262.8 -295 301.2 -260.6 299.3 -217.5C297.4 -174.4 255.2 -122.7 261.5 -85C267.9 -47.3 323 -23.6 378 0L0 0Z" fill="#ffc107"></path></g></svg>