<svg id="visual" viewBox="0 0 900 600" width="900" height="600" xmlns="http://www.w3.org/2000/svg" xmlns:xlink="http://www.w3.org/1999/xlink" version="1.1"><rect x="0" y="0" width="900" height="600" fill="#fff"></rect><defs><linearGradient id="grad1_0" x1="33.3%" y1="0%" x2="100%" y2="100%"><stop offset="20%" stop-color="#ffffff" stop-opacity="1"></stop><stop offset="80%" stop-color="#ffffff" stop-opacity="1"></stop></linearGradient></defs><defs><linearGradient id="grad2_0" x1="0%" y1="0%" x2="66.7%" y2="100%"><stop offset="20%" stop-color="#ffffff" stop-opacity="1"></stop><stop offset="80%" stop-color="#ffffff" stop-opacity="1"></stop></linearGradient></defs><g transform="translate(900, 0)"><path d="M0 378.6C-27.4 328.4 -54.9 278.3 -85 261.5C-115.1 244.8 -147.8 261.4 -191.6 263.7C-235.5 266.1 -290.4 254.2 -306.3 222.5C-322.1 190.8 -298.8 139.3 -304.3 98.9C-309.9 58.5 -344.2 29.2 -378.6 0L0 0Z" fill="#ffc107"></path></g><g transform="translate(0, 600)"><path d="M0 -378.6C30.3 -345.9 60.5 -313.2 99.5 -306.2C138.5 -299.3 186.2 -318.1 222.5 -306.3C258.8 -294.5 283.7 -252.1 291.2 -211.6C298.8 -171.1 288.9 -132.6 300.5 -97.6C312.2 -62.7 345.4 -31.4 378.6 0L0 0Z" fill="#ffc107"></path></g></svg>